<svg xmlns="http://www.w3.org/2000/svg" viewBox="0 0 1070.000000 636.000000">
  <style>
    .ink { fill: #1a1a1a; }
    @media (prefers-color-scheme: dark) { .ink { fill: #f0ede4; } }
  </style>
  <g class="ink" transform="translate(0.000000,636.000000) scale(0.100000,-0.100000)">
    <path d="M7005 6353 c-81 -7 -211 -35 -324 -69 -674 -203 -1362 -703 -1975
-1434 -462 -551 -755 -1031 -951 -1558 -21 -56 -39 -101 -41 -100 -1 2 2 77 6
168 5 91 9 341 10 555 0 1036 -55 1399 -219 1445 -94 26 -149 4 -227 -89 -213
-256 -535 -827 -1324 -2354 -107 -207 -200 -377 -207 -377 -17 0 -87 120 -213
365 -197 385 -260 475 -334 475 -32 0 -46 -7 -84 -45 -43 -43 -44 -47 -40 -95
7 -70 109 -271 260 -512 144 -228 239 -411 245 -471 4 -37 -7 -65 -102 -257
-59 -118 -108 -216 -110 -218 -2 -2 -104 -26 -227 -53 -405 -90 -767 -198
-919 -274 -240 -120 -295 -285 -135 -404 129 -97 341 -175 601 -221 123 -22
155 -33 155 -51 0 -6 -27 -71 -59 -144 -115 -259 -166 -422 -151 -485 6 -28
60 -60 101 -60 57 0 84 41 155 234 32 89 72 180 170 394 l29 63 40 -5 c22 -3
297 -8 611 -12 l571 -7 42 -86 c146 -294 360 -579 482 -642 53 -27 178 -38
232 -20 67 22 149 139 199 281 11 30 46 158 78 284 32 125 61 230 63 232 4 4
553 64 583 64 8 0 36 -20 63 -44 196 -174 549 -313 984 -386 356 -60 958 -51
1357 20 605 108 1026 256 1622 571 665 351 1069 614 1094 713 18 74 -68 191
-157 214 -72 18 -289 24 -529 13 -440 -21 -701 -66 -1525 -267 -969 -237
-1174 -286 -1475 -353 -401 -89 -755 -158 -1084 -212 l-260 -42 -43 49 c-23
27 -43 54 -43 61 0 14 61 33 105 33 72 0 340 60 517 116 317 100 685 295 1005
533 52 38 99 65 126 71 63 14 361 28 1082 50 2378 74 3160 119 3635 206 211
39 239 58 225 150 -12 83 -39 87 -325 50 -497 -66 -986 -101 -1910 -136 -754
-29 -1903 -69 -2200 -77 l-255 -6 65 70 c36 39 117 126 180 194 211 228 365
423 543 684 438 646 749 1303 951 2005 88 305 91 322 91 591 l0 236 -38 76
c-118 232 -393 336 -792 300z m369 -233 c150 -38 220 -99 246 -215 72 -324
-163 -1120 -559 -1890 -366 -710 -781 -1269 -1274 -1713 l-129 -116 -191 -7
c-663 -27 -1618 -86 -1696 -106 -23 -6 -23 -6 -17 63 3 38 8 112 12 164 57
895 477 1738 1335 2676 720 788 1712 1288 2273 1144z m-3916 -1052 c64 -259
78 -1173 31 -1973 -19 -330 -68 -894 -88 -1010 l-6 -39 -270 -27 c-149 -15
-369 -39 -491 -54 -122 -16 -232 -25 -245 -22 -34 9 -244 182 -372 307 l-107
105 176 340 c787 1522 1136 2156 1317 2388 34 44 41 42 55 -15z m-1439 -3113
c48 -52 49 -69 3 -73 -28 -3 -32 1 -52 44 -11 27 -23 59 -27 72 -5 21 -4 23
14 14 10 -6 38 -31 62 -57z m-260 -105 c-17 -11 -100 -23 -107 -15 -3 3 9 36
27 73 l33 67 30 -59 c22 -44 27 -61 17 -66z m3569 101 c16 -10 -46 -51 -260
-170 -327 -182 -691 -298 -1056 -336 -75 -8 -140 -11 -143 -7 -22 22 -89 311
-89 382 0 37 0 37 48 44 125 16 434 37 1197 80 301 17 288 17 303 7z m-1971
-208 c-9 -106 -26 -198 -42 -219 -12 -17 -16 -17 -76 -1 -186 51 -567 211
-539 227 20 11 510 66 614 69 l49 1 -6 -77z m5476 20 c36 -35 -1063 -640
-1468 -807 -541 -223 -1039 -325 -1669 -342 -327 -9 -568 17 -896 97 -220 54
-508 176 -479 204 2 1 123 24 269 50 597 105 866 165 2295 514 831 203 1090
250 1530 280 153 10 410 13 418 4z m-6390 -126 c209 -124 433 -224 679 -302
81 -26 150 -50 152 -53 4 -8 -20 -189 -33 -237 -9 -35 -9 -35 -409 -54 -125
-6 -264 -14 -310 -17 l-82 -5 -170 343 c-94 188 -170 348 -170 354 0 8 22 15
58 19 31 4 62 8 67 11 6 2 36 2 68 0 49 -4 73 -13 150 -59z m1187 -173 c2 -9
-48 -10 -63 -2 -18 9 -19 17 -14 102 10 144 17 146 48 16 16 -63 28 -116 29
-116z m-1602 -149 c89 -179 162 -327 162 -330 0 -9 -955 -5 -969 4 -11 7 19
70 141 302 l154 294 155 26 c84 15 163 27 174 28 17 1 48 -54 183 -324z m-808
190 c0 -8 -53 -120 -118 -248 l-119 -232 -114 1 c-98 2 -136 7 -269 42 -168
43 -300 90 -340 122 l-25 20 25 20 c57 45 399 160 733 245 188 48 227 53 227
30z m2420 -276 c36 -5 75 -17 88 -25 25 -16 97 -122 89 -131 -8 -7 -349 -45
-355 -38 -3 2 0 29 6 57 6 29 14 68 17 86 13 63 36 71 155 51z m-460 -462 c0
-29 -69 -281 -109 -400 -57 -169 -93 -185 -193 -90 -81 78 -334 460 -316 478
2 2 89 9 193 15 105 6 210 12 235 13 25 2 78 4 118 5 69 2 72 1 72 -21z"/>
  </g>
</svg>
